<svg width="78" height="78" fill="none" xmlns="http://www.w3.org/2000/svg"><mask id="a" style="mask-type:alpha" maskUnits="userSpaceOnUse" x="0" y="0" width="78" height="78"><rect width="77.913" height="77.913" rx="10" fill="#fff"/></mask><g mask="url(#a)"><path fill="#fff" d="M0 0h77.913v77.913H0z"/><path d="M15 41.34c1.055 1.231 2.353 2.134 3.819 2.808a9.58 9.58 0 001.68.588c-3.041-3.041-3.505-6.732-3.11-10.735.24.15.134.35.189.494.06.16.083.336.118.506.483 2.29 1.277 4.448 2.708 6.33.345.455.74.87 1.192 1.225.013.01.059-.018.089-.028.087-.01.14.048.185.107.804 1.042 1.387 2.16 1.335 3.533-.03.824-.002 1.651-.007 2.477-.004.489-.104.547-.519.303-1.126-.66-2.147-1.465-3.126-2.254.514.763 1.058 1.558 1.677 2.3.529.634 1.062 1.264 1.707 1.786.153.124.253.274.257.478.033 1.401.73 2.492 1.63 3.485.378.419.808.782 1.26 1.12.112.084.276.145.251.338-.678-.268-1.253-.707-1.835-1.128a24.963 24.963 0 01-3.674-3.22 24.733 24.733 0 01-3.65-5.03 24.11 24.11 0 01-2.028-4.922c-.034-.116-.046-.247-.147-.336L15 41.34z" fill="#E0E6EE"/><path d="M26.335 56.2c-.707-.574-1.429-1.133-1.988-1.863-.708-.927-1.265-1.916-1.239-3.133.005-.206-.148-.272-.264-.373-1.443-1.262-2.53-2.81-3.543-4.421 1.215.939 2.41 1.9 3.809 2.674-.037-1.369.09-2.69-.093-4.002-.14-.999-.773-1.762-1.332-2.555-1.423-2.269-2.293-4.71-2.355-7.415-.041-1.817.223-3.578.88-5.273.086-.22-.017-.323-.112-.463-.833-1.223-1.114-2.518-.515-3.928.01-.02.028-.038.072-.098.253 1.14 1.033 1.684 2.088 1.973-.518-2.45-.818-4.817 1.324-6.715-.456 1.224-.196 2.206.924 2.951-.102-1.86.387-2.89 1.72-3.616-.416 1.834-.006 3.377 1.562 4.61-.676-2.159-.663-4.128.998-5.873.359 1.56.912 2.945 2.345 3.83.04-.71.048-1.37.224-2.012.103-.377.25-.733.523-1.021.145-.154.227-.18.311.079.48 1.479 1.225 2.808 2.302 3.939A6.71 6.71 0 0035.4 24.65a10.418 10.418 0 01.01-2.255 6.036 6.036 0 014.486-5.197c.256-.067.31.087.382.238.33.69.406 1.434.434 2.185.012.319.002.637.002.997a5.166 5.166 0 001.127-2.35c1.008.829 1.725 1.811 2.13 3.021.402 1.204.376 2.426.134 3.708 1.937-.889 3.659-1.951 4.693-3.851.307-.566.499-1.174.511-1.82.007-.317.096-.335.335-.185 1.37.858 2.102 2.093 2.2 3.703.009.136.001.273.001.458 1.365-.5 2.454-1.276 3.194-2.574.98 1.747 1.54 3.494.63 5.48 1.118-.408 1.897-1.09 2.307-2.234.23.564.334 1.109.398 1.666.157 1.37-.23 2.67-.497 3.987-.015.073-.02.148-.03.222-.39.198-.757.04-1.117-.09-.648-.233-1.112-.706-1.53-1.229-.477-.598-.806-1.294-1.25-1.915-.086-.12-.155-.255-.27-.354-.124.05-.107.168-.144.254-.152.36-.333.7-.641.956-.13.108-.27.305-.442.176-.134-.1.01-.277.067-.41.224-.523.285-1.054.107-1.607-.102-.316-.302-.507-.628-.573-.871-.176-1.684-.025-2.455.413a9.21 9.21 0 00-1.807 1.334c-1.323 1.258-2.609 2.553-3.623 4.087a3.8 3.8 0 00-.453.902c-.029.088-.117.198-.018.275.087.069.19-.014.278-.053.445-.19.797-.51 1.159-.818.112-.095.231-.321.385-.175.132.126-.04.298-.137.422-.419.533-.873 1.027-1.503 1.326-.277.132-.278.283-.019.449.254.162.543.181.833.157.55-.047 1.031-.284 1.49-.576.963-.613 1.8-1.386 2.679-2.108.164-.135.333-.264.497-.399.777-.641 1.63-.696 2.531-.316.773.324 1.47.8 2.243 1.128.163.07.232.209.258.384.157 1.06.028 2.119 0 3.179-.006.198-.107.326-.293.393a9.575 9.575 0 01-.354.122c-1.316.42-2.098 1.264-2.142 2.694.003.135-.017.272.004.34-.022-.027.001-.127-.004-.224.043-.65.515-1.018.967-1.357a4.355 4.355 0 012.506-.88c.473-.016.54-.076.549-.546.014-.845-.205-1.657-.373-2.475-.061-.293-.146-.58-.216-.873-.145-.603-.032-.73.607-.689.109.082.139.205.162.328.21 1.067.37 2.14.396 3.23a3.36 3.36 0 01-.186 1.14c-.125.375-.377.609-.77.688-1.8.362-2.98 1.897-3.018 3.824-.005.287-.008.575.002.862.01.316.079.35.359.185.205-.12.388-.272.574-.42.04-.03.073-.068.114-.097.154-.11.325-.362.491-.208.157.145-.054.362-.155.525-.256.417-.55.805-.912 1.136-.19.175-.283.378-.205.636.051.177.011.45.175.507.187.065.339-.166.481-.295a11.445 11.445 0 002.253-2.834c.102-.178.135-.441.416-.472.102.164.016.316-.042.461-.582 1.458-1.388 2.78-2.471 3.917-.245.257-.327.478-.144.782.217.571.166.601.634.138a18.92 18.92 0 003.32-4.46c.314-.581.546-1.203.744-1.836.306-1.191.46-2.4.384-3.629-.098-1.569-.264-3.128-.78-4.628-.041-.118-.092-.233-.072-.362.1-.22.217-.42.513-.364.5 1.336.862 2.705 1 4.13.213 2.233.004 4.405-.928 6.474-.04.089-.07.182-.104.274.052.164-.045.29-.116.419-.39.713-.823 1.399-1.316 2.046-.242.319-.465.65-.691.98-.517.75-.854 1.545-.759 2.487.041.407.005.821.01 1.274.233-.067.402-.193.57-.306 1.057-.715 2.081-1.472 2.938-2.429.042-.046.08-.096.13-.134.05-.037.106-.079.166-.029.04.034.038.09.028.14-.015.075-.052.14-.088.207a16.965 16.965 0 01-3.476 4.524c-.192.178-.29.36-.273.618.013.199-.008.4.004.6.095 1.529-.6 2.688-1.706 3.655-.085.073-.167.15-.257.218-2.565 2.042-5.288 3.833-8.277 5.2-.464.212-.95.37-1.42.569-.882.37-1.809.316-2.732.306-.53-.005-1.08.098-1.554-.258-.071-.055-.137-.014-.21.007-1.68.473-3.332.326-4.96-.244-2.204-.771-4.129-2.039-6.007-3.387L26.335 56.2z" fill="#00030B"/><path d="M55.582 31.217c-.627.13-.615.127-.468.737.26 1.088.575 2.169.566 3.304-.005.552-.054.585-.593.605-1.15.044-2.165.426-2.987 1.254-.249.25-.44.54-.493.903-.146.054-.065-.11-.129-.134-.023-1.307.659-2.233 2.014-2.739.732-.273.73-.273.77-1.053.043-.862.057-1.722-.013-2.582-.01-.116.039-.248-.134-.309-.684-.24-1.288-.646-1.93-.973-1.082-.552-2.08-.558-3.036.3a39.384 39.384 0 01-2.348 1.918c-.652.5-1.333.972-2.197 1.04-.358.028-.701-.022-.98-.266-.257-.222-.23-.369.074-.5.799-.346 1.336-.962 1.728-1.738-.114.11-.226.224-.343.331-.12.11-.242.216-.368.318a3.115 3.115 0 01-1.036.582c-.07.022-.144.075-.208.018-.066-.058-.022-.14-.001-.208.11-.358.248-.708.46-1.017 1.447-2.105 3.15-3.966 5.255-5.43.655-.455 1.386-.723 2.207-.706 1.298.025 1.541.648 1.396 1.857-.038.315-.19.606-.375.953.735-.378 1.013-.98 1.172-1.698.38.398.628.831.889 1.253.387.625.748 1.272 1.294 1.78.585.545 1.258.883 2.083.834 0 .026 0 .053.002.08-.206.017-.283.223-.444.303-.102.224-.316.314-.505.435a4.91 4.91 0 01-.687.404c-.209.064-.399.21-.635.144zm-2.6 23.86c.313-.356.658-.68.95-1.057.683-.887 1.04-1.865.902-2.996-.062-.502.035-.888.462-1.27 1.35-1.208 2.4-2.667 3.268-4.256a2.01 2.01 0 00.15-.34c-1.111 1.24-2.435 2.204-3.906 3.102.089-1.082-.16-2.115.26-3.1.233-.542.57-1.022.915-1.495.669-.915 1.325-1.839 1.834-2.857.208-.073.286-.273.394-.43 1.382-1.993 2.154-4.226 2.565-6.599a.869.869 0 01.187-.43c.18 1.882.203 3.667-.186 5.443-.39 1.782-1.125 3.394-2.348 4.78 1.823-.587 3.307-1.663 4.571-3.086-.193.808-.49 1.57-.788 2.331-1.05 2.665-2.499 5.101-4.25 7.358-.873 1.123-1.813 2.193-2.855 3.16-.619.575-1.227 1.169-1.93 1.647-.058.04-.129.064-.195.095z" fill="#E0E6EE"/><path d="M42.015 26.934c1.094-.34 2.218-.585 3.267-1.066 1.805-.828 3.214-2.137 4.453-3.649.247-.301.434-.222.64-.02.386.378.59.865.73 1.373.087.317.255.42.582.441 1.023.063 1.962-.15 2.808-.731.173-.118.277-.082.414.052.374.365.503.829.535 1.32.034.524.022 1.05-.122 1.561-.07.248.01.341.27.336.791-.016 1.496-.24 2.069-.813.092-.093.22-.301.294.005.19.77.085 2.441-.753 3.14-.02.015-.043.025-.118.069.274-.559.55-1.07.532-1.745-.276.372-.46.73-.806.947-.095.06-.187.122-.285.175-.29.158-.502.123-.66-.206a25.542 25.542 0 00-.787-1.49c-.658-1.162-1.553-2.046-2.902-2.357-.922-.212-1.805-.032-2.659.33-1.2.51-2.214 1.298-3.174 2.16-.372.334-.736.677-1.098 1.022-.274.26-.55.384-.887.098-.19-.16-.404-.153-.636-.07-.627.225-1.11.664-1.608 1.078-.425.353-.868.675-1.372.905-.766.349-1.365.216-1.899-.435-.58-.708-1.19-1.384-1.924-1.936-.545-.41-1.129-.735-1.842-.738a1.61 1.61 0 00-1.124.435c-.149.134-.297.268-.452.394-.511.416-.869.424-1.424.066-1.214-.785-2.533-1.247-3.991-1.165-1.272.073-2.41.593-3.52 1.18-.804.425-1.597.877-2.473 1.151-1.464.459-2.532-.327-2.516-1.856v-.28c.098.21.155.343.218.47.477.955 1.467 1.308 2.432.85.811-.384 1.45-1.014 2.136-1.572 1.003-.817 2.086-1.368 3.423-1.236.255.026.284-.066.235-.302-.09-.428-.127-.866.215-1.286.7 1.234 1.795 1.9 3.097 2.376-.44-1.617-.444-1.774-.085-2.281.236.256.442.537.716.754.953.754 2.074 1.032 3.246 1.095 1.273.068 2.294.592 3.133 1.512.007-.564-.225-1.153-.686-1.765a5.799 5.799 0 00-1.233-1.197c-.137-.1-.2-.2-.193-.37.056-1.199.5-2.225 1.347-3.08.162-.161.31-.112.476-.042 1.3.557 2.032 1.563 2.309 2.928.07.35.09.705.121 1.066.54-.909.748-1.876.577-2.914.667.614.97 2.447.568 4.479a.702.702 0 01-.255.583c-.29.25-.445.58-.511.922.238-.442.643-.64 1.152-.671z" fill="#637298"/><path d="M49.84 55.922c.621-.743 1.142-1.466 1.545-2.266 1.066-2.116 1.37-4.283.377-6.515-.52-1.17-1.305-2.03-2.69-2.122-.974-.063-1.91.095-2.83.409-.58.198-1.11.5-1.664.752-1.027.465-2.099.7-3.23.644-.5-.024-.888-.393-.913-.896-.045-.885-.083-1.77-.134-2.655-.011-.188.02-.266.227-.319.657-.167 1.177-.582 1.674-1.022.243-.215.462-.456.693-.686.26-.258.406-.601.952-.382.528.213 1.151-.518 1.163-1.25.013-.779-.37-1.406-.794-2.016-.065-.095-.235-.172-.165-.3.073-.134.246-.086.381-.09.216-.005.418.062.617.133 1.624.577 2.932 1.58 3.959 2.955.365.49.712.995 1.071 1.49.07.097.103.232.238.276.227-.692.587-1.285 1.234-1.712-.508 1.87.039 3.578.696 5.255.675 1.721 1.198 3.476 1.464 5.309.14.968-.165 1.761-.807 2.464-.863.949-1.846 1.754-2.891 2.49-.027.018-.064.02-.173.054z" fill="#E0E6EE"/><path d="M21.965 33.829c.172.692.411 1.359.76 1.983a.73.73 0 01.08.432c-.111 1.383.243 2.476 1.2 3.619l-.382-1.035c-.126-.344-.162-.706-.197-1.064a3.61 3.61 0 01.08-1.106c.326.198.66.313.677.816.016.476.322.868.739 1.265a2.713 2.713 0 01-.148-1.429c2.031.625 3.741-.214 5.42-1.173.584-.334 1.135-.724 1.735-1.037.666-.349 1.37-.434 2.105-.373.215.018.276.067.206.3-.164.547-.28 1.106-.35 1.678-.093.739-.053 1.44.39 2.113-.853.113-1.666.266-2.467.489a12.75 12.75 0 00-2.831 1.15c-1.542.863-2.364 2.196-2.654 3.91-.192 1.135-.126 2.259.055 3.389-.366-.785-.606-1.61-.802-2.448-.18-.767-.306-1.542-.297-2.333.002-.16-.07-.255-.183-.34-.921-.684-1.63-1.569-2.328-2.465-.07-.087-.094-.21-.14-.318-.445-.562-.65-1.226-.817-1.908-.05-.205-.079-.418-.19-.605a9.923 9.923 0 01.147-3.266c.023-.102.05-.223.192-.244z" fill="#8FA0BD"/><path d="M34.916 39.926c-.142-.526.038-.906.35-1.242a3.739 3.739 0 011.12-.799c.147-.072.225-.147.244-.324.195-1.685.423-3.366.631-5.049.186-1.509-.472-2.766-1.477-3.857-.185-.202-.356-.417-.543-.639.794-.088 1.53.102 2.144.685.542.516.974 1.14 1.572 1.604.207.162.42.314.655.43.656.325 1.183.226 1.684-.313.636-.685 1.69-1.386 2.391-1.578-.463.572-.909 1.125-1.28 1.73-.222.36-.44.728-.542 1.142-.074.299-.197.359-.497.26-.766-.249-1.426-.06-1.94.577-.045.056-.076.123-.136.22.108-.036.175-.056.242-.08.647-.235 1.061-.04 1.204.625.154.718.253 1.447.378 2.17.06.345.167.678.313.994.236.511.599.87 1.161 1.03.682.194 1.148.633 1.345 1.33.02.072.03.147.038.22.005.044-.005.087-.013.197-.305-.585-.792-.802-1.333-.956-.229-.064-.333-.039-.393.216a3.5 3.5 0 01-.606 1.315c-.66.886-1.552 1.254-2.642 1.153-.497-.045-.8-.37-1.037-.77-.209-.355-.386-.729-.615-1.068-.319-.47-.608-.532-1.124-.29-.508.236-.878.647-1.294 1.067zm13.329 16.69c-.843 1.077-1.95 1.805-3.187 2.338-2.149.926-4.41 1.303-6.741 1.277a4.682 4.682 0 01-1.614-.284c-1.083-.41-1.797-1.155-1.859-2.339-.056-1.088.53-1.869 1.456-2.39.91-.512 1.909-.617 2.932-.565.209.01.416.04.63.062-1.44.817-1.759 1.692-1.082 3.056-.127-.755-.013-1.407.517-1.934.498-.494 1.13-.718 1.801-.838.995-.18 1.798.15 2.368.981.515.753.378 1.694-.301 2.3-.099.089-.203.172-.325.274 1.273.023 3.743-.393 5.405-1.938z" fill="#E0E6EE"/><path d="M55.581 31.216l.623-.235c.307.189.426.517.571.815.264.543.438 1.116.43 1.677-.055-.93.037-1.93-.334-2.875l.536-.365c.187.706.438 1.392.56 2.116.363 2.171.561 4.34-.035 6.505-.015.057-.053.108-.079.162-.356.805-.727 1.6-1.215 2.338a16.288 16.288 0 01-3.171 3.551c-.118.098-.233.234-.422.194-.233-.316-.19-.545.105-.847 1.13-1.155 1.957-2.514 2.527-4.026.039-.104.053-.215.08-.323-.096-.135-.044-.26.023-.384.146-.27.271-.55.391-.831-.763 1.732-1.976 3.1-3.456 4.25-.095.073-.191.164-.333.133-.163-.298-.085-.521.162-.753.49-.46.91-.98 1.146-1.645-.343.266-.678.542-1.032.792-.153.11-.333.32-.513.219-.155-.088-.065-.345-.075-.526-.065-1.145.082-2.245.772-3.203.577-.8 1.36-1.31 2.335-1.49.383-.07.599-.283.705-.631.161-.532.19-1.08.146-1.629a20.877 20.877 0 00-.447-2.989z" fill="#8FA0BD"/><path d="M34.725 29.487c.62.717 1.149 1.39 1.346 2.252.15.662-.196 1.174-.868 1.344-1.106.28-2.118.075-3.048-.58-.821-.577-1.524-1.292-2.277-1.947-.838-.73-1.744-.898-2.774-.524-.308.113-.622.173-.952.086-.478-.126-.71-.467-.836-1.004-.083.556-.04 1.011.286 1.38.176.198.08.24-.08.332-1.516.877-2.918.501-4.27-.388a3.82 3.82 0 01-.883-.822c1.208.248 2.139-.29 3.09-.827 1.392-.786 2.844-1.427 4.47-1.572 1.708-.153 3.04.5 4.06 1.84.4.526.765 1.079 1.156 1.613.236.322.491.634.873.799.511.22.827.028.866-.527.027-.39-.03-.773-.117-1.152-.016-.069-.02-.141-.042-.303z" fill="#E0E6EE"/><path d="M48.458 52.36c-2.17.142-4.307-.165-6.428-.557-1.823-.338-3.645-.557-5.499-.326-1.21.152-2.403.414-3.602.637-.245.046-.492.08-.737.119-.395.123-.442-.192-.543-.391.054.448.054.448-.525.522-.648-.008-1.298.014-1.935-.14-.194-.047-.383-.113-.533-.254-.168-.157-.208-.344-.095-.54.426-.74.964-1.334 1.885-1.42.356-.032.687.141 1.016.151.296.009.52-.38.873-.417.725-.074 1.379.145 2 .48.181.099.297.129.48-.027.572-.482 1.237-.455 1.912-.267.373.104.726.261 1.055.467.14.088.24.11.4.013.915-.56 1.817-.496 2.698.094.089.06.156.178.306.038.852-.795 1.921-.584 2.785.088.203.157.291.151.464-.03.36-.378.813-.294 1.258-.178.048.013.099.025.139.053.392.259.77.296 1.226.091.488-.22.944.021 1.353.315.174-.495.402-.65.925-.587.36.043.72.049 1.083.053.389.04.519.207.532.684-.235.575-.714.857-1.266 1.047-.175.06-.355.105-.532.157-.166.072-.246-.06-.357-.173-.112.107-.136.316-.338.298zm-17.092-6.658c1.013-.262 1.933.043 2.835.464.1.047.201.091.302.136.168.05.149.198.17.33.132.04.237-.126.371-.048 1.961 1.068 4.044 1.6 6.284 1.426.997-.077 1.969-.3 2.917-.611.254-.084.448-.126.607.274.003-.386.121-.55.404-.63.479-.133.94-.325 1.415-.471.651-.2 1.518.395 1.555 1.067a.741.741 0 01-.34.674c-.704.47-1.49.666-2.333.662-.268-.002-.5-.324-.674-.249-.202.087-.377.315-.613.392a6.464 6.464 0 01-2.209.325c-.098-.003-.22-.004-.287-.06-.346-.288-.694-.11-1.06-.062a5.754 5.754 0 01-2.967-.386c-.307-.126-.55-.217-.89-.175-.623.078-1.246-.03-1.841-.232-.393-.133-.726-.34-.655-.857-1.185.755-2.864.325-3.376-.843-.086-.449-.134-.884.384-1.126z" fill="#F5F8FA"/><path d="M28.157 46.233c.043-1.956.84-3.732 2.634-4.478.675-.282 1.375-.33 2.09-.252.198.022.334.09.414.329.26.783 1.003 1.28 1.908 1.305 1.122.03 2.24.088 3.348.298.338.064.47.188.392.532-.05.218-.06.444-.079.668-.06.766-.506 1.084-1.25.849-.72-.228-1.412-.539-2.149-.725-1.977-.497-3.916-.526-5.788.414-.534.27-1.008.634-1.52 1.06z" fill="#E0E6EE"/><path d="M27.565 52.512c.699.178 1.343.353 2 .476 1.197.226 2.379.158 3.57-.048 2.263-.392 4.533-.73 6.842-.644 1.868.07 3.671.496 5.46.998.782.219 1.572.373 2.391.373 1.238 0 2.21-.515 2.981-1.454.077-.094.152-.19.282-.353.021.49-.13.844-.339 1.174-.522.823-1.337 1.196-2.236 1.438-1.35.363-2.643.064-3.927-.337-1.462-.455-2.928-.889-4.474-.97-1.207-.063-2.387.097-3.569.298-1.534.261-3.055.606-4.607.761-1.635.165-3.109-.144-4.215-1.488-.046-.056-.084-.119-.159-.224z" fill="#F5F8FA"/><path d="M27.555 55.56a13.45 13.45 0 003.012 1.444 13.31 13.31 0 003.145.617c.108.008.271-.066.28.144.038 1.002.537 1.74 1.386 2.325-3.19-.674-6.453-2.593-7.823-4.53zm21.423-.316c-1.165 1.208-2.494 2.132-4.142 2.533-.06.014-.121.024-.182.038-.478.109-.489.094-.375-.369a2.27 2.27 0 00-.38-1.948c-.116-.16-.246-.31-.437-.55.956.375 1.853.593 2.783.645.928.053 1.838-.042 2.733-.349zM45.87 36.367c.357.366.674.628.928.97-.155.026-.24-.084-.339-.141-.872-.505-1.79-.873-2.804-.957-.086-.008-.17 0-.223-.1-.147-.287-.343-.551-.417-.873-.103-.45.052-.653.508-.604 1.39.15 2.611.708 3.7 1.568.537.422 1.018.9 1.4 1.476-.85-.518-1.72-.983-2.754-1.339z" fill="#8FA0BD"/><path d="M50.687 35.101c-.993-.105-1.957-.313-2.782-.928a1.513 1.513 0 01-.6-.958c-.051-.27-.045-.371.297-.32 1.026.152 2.058.206 3.083-.034a3.362 3.362 0 001.14-.494c-.672 1.182-1.676 1.793-3.07 1.759.607.435 1.297.64 1.932.975zm-23.964-2.793c1.413.987 2.169 1.083 4.555.541.046.524-.175.923-.56 1.24-.685.566-1.52.77-2.364.943a3.06 3.06 0 01-.56.06c.659-.35 1.374-.576 2.019-1.009-1.45.12-2.485-.46-3.09-1.775z" fill="#F4F7F9"/><path d="M53.045 45.099c2.067-1.557 3.585-3.546 4.655-5.891.034-.075.01-.203.154-.192-.538 1.805-1.563 3.335-2.722 4.786-.552.69-1.161 1.33-1.813 1.976-.154-.215-.204-.452-.274-.68z" fill="#DFE5ED"/><path d="M21.966 33.828c-.336 1.117-.301 2.264-.283 3.41 0 .041.044.082.068.124.11.628.248 1.248.51 1.834.038.084.1.178.015.275-.566-.739-.825-1.6-1.008-2.495-.228-1.116-.127-2.682.262-3.77.207.18.349.38.436.622z" fill="#E0E6EE"/><path d="M52.38 43.07c1.668-1.206 2.966-2.722 3.844-4.625 0 .304-.07.524-.317 1.008-.072.144-.158.28-.152.45-.294.471-.577.95-.884 1.411a10.14 10.14 0 01-2.315 2.456c-.095-.245-.176-.461-.176-.7z" fill="#DFE5ED"/><path d="M42.016 26.934c-.465.166-.91.366-1.253.86.05-.543.23-.916.572-1.193.168-.136.21-.326.297-.498.026.193.13.13.235.072.333-.179.695-.275 1.06-.353.136-.029.322-.095.413.058.097.164-.073.263-.163.378-.175.22-.438.27-.675.379-.17.078-.41.06-.486.297z" fill="#637298"/><path d="M31.365 45.7c-.33.306-.424.694-.386 1.127-.043-.462-.31-.392-.625-.282-1.116.387-1.805 1.195-2.252 2.265.073-1.404 1.599-2.85 3.263-3.11z" fill="#8E9FBC"/><path d="M50.951 51.03c-.09-.296-.21-.57-.532-.684.637-.59.714-1.291.357-2.128.664.758.718 1.953.175 2.812z" fill="#8E9EBC"/><path d="M22.277 39.47c-.152-.557-.411-1.082-.485-1.665a8.173 8.173 0 01-.04-.443c.101.362.208.724.305 1.087.13.495.392.934.58 1.404-.099.068-.189.042-.18-.072.011-.16-.132-.203-.18-.31z" fill="#434E71"/><path d="M31.124 52.363c.353-.04.62-.15.429-.646.28.164.3.544.639.516.02.106.137.249-.124.212-.312-.045-.63-.056-.944-.082z" fill="#4F5F86"/><path d="M48.458 52.36c.206-.094.181-.327.274-.485.227.03.15.395.42.358-.213.145-.4.432-.694.126z" fill="#51628A"/><path d="M35.044 46.583l-.455.215c-.05-.174.07-.36-.086-.496.32-.177.438.038.541.281z" fill="#52638A"/><path d="M51.479 37.885l.128.134v.347c-.147-.16-.157-.316-.128-.481z" fill="#747C9E"/><path d="M56.871 30.598c.211.022.189.213.221.34.234.905.22 1.824.12 2.754-.109-.99-.473-1.883-1.008-2.71l.667-.384z" fill="#00030B"/></g></svg>