<svg width="78" height="78" fill="none" xmlns="http://www.w3.org/2000/svg"><mask id="a" style="mask-type:alpha" maskUnits="userSpaceOnUse" x="0" y="0" width="78" height="78"><rect width="77.913" height="77.913" rx="10" fill="#fff"/></mask><g mask="url(#a)"><path fill="#fff" d="M0 0h77.913v77.913H0z"/><path d="M27.458 37.14c2.08 0 3.77.62 5.07 1.86 1.32 1.24 1.98 2.96 1.98 5.16 0 2.24-.75 4-2.25 5.28-1.48 1.28-3.48 1.92-6 1.92-5.86 0-8.79-3.54-8.79-10.62 0-3.72.77-6.5 2.31-8.34 1.54-1.84 3.72-2.76 6.54-2.76 2.12 0 3.84.52 5.16 1.56 1.32 1.02 2.09 2.51 2.31 4.47l-4.59.27c-.12-.72-.43-1.31-.93-1.77-.5-.46-1.15-.69-1.95-.69-1.52 0-2.62.78-3.3 2.34-.42.92-.68 2.15-.78 3.69 1.18-1.58 2.92-2.37 5.22-2.37zm-3.78 9.48c.64.6 1.49.9 2.55.9 1.06 0 1.91-.3 2.55-.9.64-.62.96-1.44.96-2.46s-.32-1.83-.96-2.43c-.64-.6-1.49-.9-2.55-.9-1.06 0-1.91.3-2.55.9-.62.6-.93 1.41-.93 2.43 0 1.02.31 1.84.93 2.46zm22.304-9.81c2.04 0 3.7.63 4.98 1.89 1.28 1.26 1.92 3 1.92 5.22 0 2.4-.77 4.24-2.31 5.52-1.54 1.28-3.55 1.92-6.03 1.92-2.2 0-4.07-.53-5.61-1.59s-2.45-2.6-2.73-4.62l4.62-.3c.2.88.65 1.54 1.35 1.98.7.44 1.49.66 2.37.66 1.1 0 1.97-.31 2.61-.93.64-.64.96-1.52.96-2.64 0-1.14-.34-2.01-1.02-2.61-.68-.62-1.56-.93-2.64-.93-1.56 0-2.72.59-3.48 1.77l-4.23-.39.87-11.76h13.98v3.87h-10.41l-.36 4.92c1.28-1.32 3-1.98 5.16-1.98zm9.227-2.598c-.392-.384-.588-.904-.588-1.56s.196-1.172.588-1.548c.392-.384.924-.576 1.596-.576s1.204.192 1.596.576c.392.376.588.892.588 1.548s-.196 1.176-.588 1.56c-.392.376-.924.564-1.596.564s-1.204-.188-1.596-.564zM55.94 39l5.928-8.4h1.176L57.129 39H55.94zm.228-7.128c-.16.176-.24.436-.24.78 0 .344.08.608.24.792.16.176.372.264.636.264a.818.818 0 00.636-.264c.16-.184.24-.448.24-.792 0-.344-.08-.604-.24-.78a.801.801 0 00-.636-.276.801.801 0 00-.636.276zm4.416 6.636c-.392-.384-.588-.904-.588-1.56s.196-1.176.588-1.56c.392-.384.924-.576 1.596-.576.68 0 1.212.192 1.596.576.392.376.588.896.588 1.56 0 .656-.196 1.176-.588 1.56-.384.376-.916.564-1.596.564-.672 0-1.204-.188-1.596-.564zm.708-1.56c0 .336.08.596.24.78a.838.838 0 00.648.276.801.801 0 00.636-.276c.16-.184.24-.444.24-.78 0-.344-.08-.608-.24-.792a.801.801 0 00-.636-.276.838.838 0 00-.648.276c-.16.184-.24.448-.24.792z" fill="#252D4D"/></g></svg>