<svg width="439" height="402" fill="none" xmlns="http://www.w3.org/2000/svg"><g opacity=".03"><path d="M.09 220.601c9.647 11.24 21.519 19.475 34.917 25.625 4.72 2.169 9.598 3.89 15.364 5.355-27.808-27.735-32.047-61.405-28.43-97.914 2.182 1.374 1.22 3.187 1.717 4.503.556 1.465.763 3.07 1.087 4.618 4.413 20.891 11.672 40.573 24.755 57.747 3.16 4.147 6.778 7.929 10.9 11.165.125.1.54-.165.814-.256.796-.083 1.277.438 1.692.976 7.358 9.502 12.684 19.707 12.212 32.23-.283 7.516-.017 15.056-.067 22.588-.033 4.461-.946 4.99-4.745 2.764-10.295-6.017-19.628-13.359-28.588-20.56 4.704 6.961 9.681 14.212 15.34 20.982 4.836 5.786 9.705 11.53 15.604 16.289 1.402 1.134 2.314 2.499 2.356 4.362.299 12.779 6.678 22.728 14.9 31.791 3.459 3.815 7.391 7.126 11.522 10.213 1.029.77 2.522 1.325 2.298 3.079-6.205-2.441-11.456-6.447-16.782-10.288-12.129-8.724-23.403-18.465-33.599-29.374-13-13.913-24.224-29.134-33.374-45.87-7.823-14.302-14.045-29.242-18.541-44.901-.307-1.06-.423-2.252-1.344-3.063-.009-.695-.009-1.382-.009-2.061z" fill="#E0E6EE"/><path d="M103.739 356.147c-6.463-5.231-13.066-10.33-18.177-16.992-6.478-8.451-11.572-17.473-11.332-28.572.042-1.879-1.352-2.483-2.414-3.41-13.199-11.505-23.129-25.625-32.395-40.324 11.108 8.566 22.034 17.34 34.826 24.391-.34-12.481.821-24.532-.855-36.5-1.269-9.113-7.068-16.074-12.178-23.308-13.008-20.692-20.964-42.956-21.528-67.629-.381-16.578 2.033-32.644 8.047-48.096.78-2.003-.157-2.955-1.028-4.23C39.089 100.32 36.517 88.509 42 75.655c.083-.19.249-.347.655-.902 2.315 10.404 9.45 15.362 19.089 18.002C57.008 70.4 54.27 48.814 73.857 31.5c-4.173 11.165-1.792 20.129 8.445 26.924-.929-16.967 3.543-26.37 15.738-32.983-3.817 16.727-.067 30.798 14.277 42.054-6.181-19.698-6.064-37.659 9.125-53.575 3.277 14.236 8.338 26.858 21.437 34.928.373-6.464.44-12.498 2.049-18.35.946-3.435 2.29-6.68 4.787-9.311 1.327-1.407 2.074-1.639 2.845.72 4.38 13.491 11.2 25.617 21.047 35.93 3.783 3.956 7.931 7.49 13.016 10.536-.738-7.093-.655-13.814.091-20.568 2.531-22.852 18.791-41.665 41.024-47.41 2.339-.604 2.829.795 3.492 2.177 3.012 6.299 3.717 13.078 3.974 19.93.108 2.906.017 5.811.017 9.089 5.193-6.258 8.636-13.119 10.303-21.437 9.217 7.565 15.771 16.529 19.471 27.562 3.683 10.983 3.442 22.132 1.227 33.818 17.712-8.102 33.458-17.795 42.915-35.126 2.812-5.157 4.563-10.702 4.679-16.595.058-2.897.871-3.054 3.061-1.689 12.527 7.822 19.214 19.087 20.118 33.778.074 1.241.008 2.491.008 4.171 12.477-4.552 22.441-11.637 29.202-23.473 8.968 15.933 14.078 31.866 5.765 49.984 10.221-3.725 17.347-9.94 21.089-20.377 2.098 5.148 3.061 10.114 3.641 15.196 1.436 12.498-2.098 24.358-4.546 36.368-.133.662-.182 1.349-.265 2.019-3.567 1.813-6.927.365-10.221-.819-5.923-2.127-10.171-6.439-13.987-11.207-4.363-5.454-7.375-11.803-11.431-17.464-.789-1.1-1.419-2.326-2.464-3.236-1.145.455-.988 1.54-1.319 2.317-1.394 3.295-3.053 6.39-5.866 8.724-1.186.985-2.472 2.781-4.04 1.606-1.227-.91.092-2.524.614-3.733 2.049-4.784 2.605-9.626.979-14.666-.937-2.88-2.762-4.627-5.741-5.231-7.972-1.606-15.405-.224-22.457 3.774-6.006 3.402-11.556 7.457-16.517 12.167-12.103 11.471-23.859 23.282-33.134 37.278-1.709 2.583-3.169 5.289-4.139 8.227-.266.803-1.07 1.805-.166 2.508.796.629 1.734-.132 2.547-.48 4.065-1.73 7.283-4.66 10.594-7.465 1.028-.869 2.115-2.93 3.517-1.598 1.211 1.151-.357 2.723-1.244 3.849-3.833 4.867-7.989 9.369-13.747 12.101-2.53 1.2-2.547 2.574-.174 4.088 2.323 1.482 4.961 1.656 7.616 1.432 5.035-.43 9.432-2.59 13.622-5.247 8.81-5.595 16.467-12.647 24.497-19.227 1.502-1.234 3.045-2.409 4.547-3.642 7.101-5.852 14.899-6.348 23.145-2.889 7.068 2.963 13.448 7.3 20.508 10.297 1.493.637 2.123 1.903 2.364 3.501 1.435 9.667.249 19.326-.008 28.993-.05 1.805-.971 2.972-2.672 3.584a86.68 86.68 0 01-3.243 1.117c-12.029 3.833-19.18 11.53-19.587 24.574.033 1.225-.149 2.475.042 3.104-.208-.248.008-1.167-.042-2.044.398-5.935 4.712-9.287 8.843-12.382 6.704-5.016 14.444-7.731 22.914-8.021 4.33-.149 4.944-.703 5.019-4.982.132-7.714-1.867-15.114-3.41-22.579-.556-2.674-1.336-5.297-1.974-7.963-1.328-5.504-.291-6.662 5.55-6.282.995.745 1.269 1.871 1.485 2.988 1.916 9.734 3.384 19.525 3.617 29.457.083 3.551-.573 7.036-1.701 10.413-1.137 3.41-3.443 5.545-7.035 6.265-16.459 3.302-27.252 17.307-27.6 34.878-.05 2.624-.075 5.248.016 7.863.091 2.889.722 3.203 3.285 1.689 1.875-1.101 3.551-2.483 5.252-3.824.356-.281.663-.629 1.037-.894 1.41-.993 2.978-3.302 4.496-1.895 1.435 1.324-.498 3.302-1.419 4.792-2.339 3.799-5.035 7.341-8.337 10.362-1.742 1.598-2.588 3.444-1.875 5.802.465 1.614.1 4.106 1.593 4.619 1.709.596 3.103-1.506 4.405-2.69 8.288-7.482 15.049-16.173 20.599-25.848.929-1.623 1.236-4.023 3.799-4.304.938 1.498.15 2.88-.381 4.204-5.318 13.301-12.693 25.352-22.598 35.731-2.24 2.342-2.987 4.362-1.311 7.135 1.983 5.206 1.518 5.479 5.79 1.249 12.171-12.034 22.209-25.666 30.355-40.672 2.879-5.305 5.003-10.975 6.811-16.752 2.796-10.867 4.206-21.892 3.509-33.099-.896-14.31-2.414-28.538-7.134-42.219-.373-1.076-.838-2.119-.656-3.303.921-2.003 1.983-3.824 4.696-3.311 4.571 12.184 7.881 24.665 9.134 37.66 1.958 20.377.041 40.183-8.479 59.054-.365.812-.638 1.664-.954 2.5.481 1.498-.406 2.649-1.053 3.824-3.568 6.505-7.533 12.763-12.038 18.664-2.215 2.905-4.247 5.935-6.321 8.939-4.72 6.837-7.807 14.095-6.935 22.687.373 3.708.041 7.49.082 11.62 2.141-.612 3.684-1.763 5.219-2.797 9.664-6.522 19.03-13.425 26.87-22.149.382-.422.73-.877 1.186-1.225.457-.339.971-.72 1.518-.265.366.306.341.82.249 1.283-.132.679-.472 1.275-.796 1.879-8.238 15.569-18.89 29.291-31.79 41.268-1.75 1.622-2.646 3.278-2.497 5.636.116 1.813-.075 3.65.041 5.471.863 13.947-5.483 24.524-15.604 33.339-.772.671-1.527 1.374-2.348 1.995-23.452 18.623-48.357 34.961-75.683 47.426-4.24 1.937-8.694 3.377-12.992 5.189-8.055 3.386-16.534 2.881-24.97 2.798-4.854-.05-9.881.885-14.211-2.359-.656-.497-1.253-.124-1.925.066-15.364 4.312-30.471 2.972-45.362-2.226-20.142-7.036-37.746-18.598-54.919-30.897-4.538-3.237-9.067-6.489-13.605-9.742z" fill="#00030B"/><path d="M371.168 128.272c-5.733 1.183-5.617 1.158-4.281 6.72 2.389 9.924 5.259 19.782 5.176 30.136-.041 5.041-.489 5.339-5.417 5.521-10.519.397-19.802 3.89-27.318 11.438-2.273 2.285-4.024 4.933-4.505 8.236-1.335.496-.597-1.002-1.178-1.225-.207-11.919 6.023-20.369 18.417-24.98 6.695-2.491 6.67-2.491 7.035-9.609.398-7.855.523-15.701-.116-23.547-.083-1.06.357-2.26-1.22-2.814-6.263-2.194-11.78-5.894-17.653-8.881-9.889-5.033-19.015-5.091-27.758 2.739-6.869 6.15-14.137 11.886-21.47 17.497-5.965 4.561-12.195 8.865-20.093 9.485-3.277.257-6.413-.207-8.968-2.425-2.339-2.027-2.09-3.368.681-4.568 7.308-3.154 12.219-8.774 15.803-15.85-1.045 1.009-2.065 2.044-3.136 3.021a70.04 70.04 0 01-3.368 2.896c-2.845 2.31-5.931 4.213-9.465 5.314-.639.199-1.319.679-1.908.166-.606-.53-.2-1.283-.009-1.904 1.012-3.261 2.273-6.456 4.215-9.27 13.223-19.202 28.803-36.178 48.049-49.536 5.982-4.147 12.668-6.589 20.176-6.44 11.871.232 14.095 5.918 12.767 16.943-.348 2.872-1.742 5.529-3.434 8.69 6.728-3.443 9.266-8.93 10.718-15.486 3.476 3.634 5.741 7.582 8.13 11.43 3.543 5.703 6.836 11.605 11.83 16.24 5.351 4.966 11.507 8.045 19.048 7.598.008.24.008.488.016.728-1.875.157-2.58 2.036-4.057 2.773-.929 2.036-2.886 2.864-4.62 3.964-2.016 1.358-4.065 2.666-6.28 3.684-1.908.587-3.642 1.92-5.807 1.316zM347.397 345.91c2.862-3.245 6.014-6.208 8.677-9.642 6.255-8.087 9.524-17.009 8.255-27.33-.564-4.577.323-8.095 4.222-11.58 12.353-11.016 21.951-24.325 29.882-38.826.531-.977 1.004-1.978 1.369-3.095-10.154 11.314-22.258 20.104-35.714 28.298.813-9.874-1.452-19.302 2.389-28.274 2.124-4.949 5.21-9.328 8.363-13.64 6.114-8.351 12.112-16.777 16.766-26.063 1.899-.662 2.613-2.492 3.6-3.923 12.643-18.176 19.703-38.545 23.453-60.189.19-1.118.423-2.185 1.717-3.923 1.651 17.166 1.858 33.446-1.701 49.644-3.575 16.255-10.287 30.963-21.47 43.593 16.667-5.346 30.239-15.163 41.795-28.141-1.767 7.375-4.48 14.328-7.209 21.263-9.59 24.309-22.847 46.533-38.866 67.117-7.973 10.246-16.567 20.005-26.099 28.828-5.658 5.239-11.216 10.652-17.646 15.014-.531.372-1.178.588-1.783.869z" fill="#E0E6EE"/><path d="M247.115 89.204c10.005-3.104 20.284-5.338 29.874-9.725 16.501-7.548 29.392-19.492 40.716-33.28 2.257-2.749 3.966-2.029 5.857-.183 3.526 3.451 5.384 7.888 6.67 12.523.796 2.888 2.331 3.832 5.326 4.022 9.35.58 17.936-1.374 25.676-6.67 1.576-1.077 2.53-.746 3.783.48 3.418 3.326 4.604 7.556 4.894 12.042.307 4.776.199 9.576-1.12 14.236-.638 2.26.1 3.112 2.464 3.062 7.243-.149 13.689-2.193 18.923-7.416.846-.844 2.016-2.748 2.696.042 1.726 7.027.772 22.273-6.893 28.646-.175.14-.39.231-1.079.629 2.514-5.099 5.027-9.767 4.87-15.916-2.522 3.393-4.215 6.662-7.367 8.632-.871.546-1.717 1.118-2.613 1.606-2.647 1.44-4.588 1.117-6.04-1.879-2.231-4.61-4.654-9.138-7.184-13.59-6.023-10.603-14.202-18.673-26.538-21.504-8.429-1.936-16.509-.29-24.316 3.013-10.975 4.644-20.242 11.836-29.027 19.699-3.401 3.046-6.728 6.174-10.038 9.32-2.506 2.375-5.027 3.501-8.114.894-1.725-1.457-3.691-1.391-5.807-.638-5.74 2.053-10.154 6.059-14.708 9.833-3.883 3.22-7.939 6.158-12.544 8.252-7.001 3.187-12.485 1.978-17.363-3.965-5.301-6.456-10.884-12.622-17.596-17.654-4.985-3.741-10.32-6.712-16.84-6.737-3.974-.017-7.35 1.34-10.279 3.973-1.36 1.216-2.713 2.441-4.131 3.592-4.679 3.79-7.948 3.865-13.025.596-11.1-7.151-23.162-11.373-36.494-10.62-11.63.663-22.034 5.405-32.18 10.752-7.358 3.882-14.608 8.004-22.622 10.512-13.382 4.179-23.154-2.988-23.005-16.935.008-.563 0-1.125 0-2.557.896 1.928 1.419 3.128 2 4.295 4.355 8.708 13.414 11.927 22.233 7.756 7.416-3.51 13.265-9.254 19.528-14.344 9.175-7.457 19.081-12.481 31.301-11.273 2.331.232 2.596-.604 2.148-2.756-.821-3.907-1.153-7.896 1.966-11.728 6.396 11.256 16.418 17.331 28.322 21.668-4.015-14.749-4.064-16.18-.779-20.807 2.165 2.342 4.04 4.9 6.553 6.878 8.711 6.878 18.957 9.418 29.675 9.99 11.647.62 20.98 5.396 28.646 13.789.066-5.14-2.049-10.512-6.272-16.099-3.194-4.229-7.01-7.821-11.274-10.917-1.253-.91-1.834-1.829-1.759-3.368.514-10.942 4.563-20.303 12.319-28.092 1.477-1.481 2.838-1.034 4.348-.389 11.888 5.082 18.582 14.253 21.113 26.71.647 3.194.821 6.43 1.111 9.716 4.936-8.285 6.836-17.108 5.268-26.576 6.106 5.595 8.877 22.322 5.202 40.854.041 2.135-.647 3.882-2.331 5.322-2.663 2.276-4.074 5.28-4.679 8.4 2.181-4.03 5.881-5.834 10.535-6.116z" fill="#637298"/><path d="M318.662 353.613c5.682-6.779 10.444-13.376 14.128-20.668 9.747-19.301 12.526-39.066 3.451-59.427-4.762-10.677-11.93-18.523-24.598-19.351-8.901-.579-17.471.861-25.875 3.725-5.301 1.804-10.146 4.569-15.214 6.861-9.391 4.238-19.197 6.382-29.542 5.877-4.571-.224-8.113-3.584-8.346-8.178-.415-8.07-.755-16.148-1.228-24.218-.099-1.713.191-2.425 2.074-2.905 6.015-1.523 10.769-5.313 15.315-9.319 2.223-1.962 4.222-4.164 6.329-6.258 2.381-2.358 3.717-5.487 8.711-3.484 4.828 1.937 10.528-4.726 10.636-11.414.116-7.093-3.385-12.821-7.259-18.383-.598-.86-2.149-1.564-1.51-2.739.663-1.217 2.248-.778 3.484-.811 1.974-.05 3.816.563 5.641 1.208 14.85 5.264 26.804 14.41 36.195 26.958 3.344 4.469 6.513 9.071 9.798 13.582.647.894.945 2.119 2.173 2.524 2.074-6.315 5.368-11.72 11.283-15.618-4.646 17.067.356 32.635 6.371 47.931 6.164 15.701 10.951 31.708 13.381 48.427 1.286 8.831-1.51 16.065-7.375 22.48-7.889 8.649-16.882 15.999-26.439 22.703-.249.174-.581.19-1.584.497z" fill="#E0E6EE"/><path d="M63.777 152.091c1.568 6.315 3.758 12.398 6.952 18.093.689 1.225.846 2.533.73 3.94-1.02 12.613 2.223 22.587 10.975 33.007-1.327-3.583-2.422-6.505-3.5-9.443-1.153-3.129-1.477-6.432-1.8-9.701-.332-3.294 0-6.588.73-10.089 2.986 1.804 6.03 2.855 6.188 7.441.15 4.345 2.945 7.92 6.761 11.537-1.709-4.684-2.049-8.707-1.352-13.027 18.575 5.694 34.212-1.954 49.56-10.702 5.342-3.046 10.378-6.605 15.862-9.46 6.097-3.179 12.526-3.957 19.254-3.402 1.967.165 2.522.612 1.884 2.731a92.783 92.783 0 00-3.211 15.312c-.838 6.737-.473 13.127 3.576 19.277-7.799 1.026-15.24 2.425-22.557 4.453-9.042 2.508-17.679 5.909-25.891 10.495-14.095 7.871-21.62 20.029-24.266 35.664-1.759 10.355-1.153 20.601.498 30.906-3.343-7.16-5.534-14.683-7.334-22.323-1.642-6.994-2.796-14.07-2.712-21.279.016-1.465-.631-2.326-1.676-3.104-8.42-6.241-14.908-14.311-21.288-22.48-.63-.803-.854-1.928-1.269-2.905-4.073-5.123-5.956-11.182-7.475-17.406-.456-1.871-.721-3.807-1.733-5.521-1.261-10.006-.706-19.93 1.335-29.788.208-.927.465-2.028 1.76-2.226z" fill="#8FA0BD"/><path d="M182.2 207.71c-1.294-4.792.349-8.26 3.202-11.323 2.912-3.12 6.43-5.437 10.246-7.291 1.335-.654 2.049-1.341 2.231-2.955 1.776-15.37 3.866-30.707 5.766-46.052 1.701-13.764-4.314-25.236-13.506-35.185-1.692-1.837-3.252-3.799-4.969-5.826 7.259-.803 13.995.926 19.603 6.248 4.961 4.702 8.91 10.404 14.377 14.634 1.9 1.473 3.841 2.855 5.99 3.923 5.998 2.963 10.818 2.053 15.405-2.864 5.807-6.24 15.456-12.638 21.86-14.393-4.239 5.223-8.313 10.263-11.714 15.784-2.024 3.286-4.023 6.638-4.952 10.412-.672 2.731-1.792 3.277-4.538 2.384-7.002-2.277-13.042-.555-17.737 5.255-.415.505-.697 1.118-1.253 2.012.988-.331 1.61-.514 2.215-.737 5.915-2.144 9.707-.364 11.009 5.703 1.41 6.547 2.315 13.201 3.459 19.798.548 3.145 1.527 6.174 2.862 9.063 2.157 4.66 5.476 7.937 10.619 9.394 6.239 1.771 10.495 5.777 12.295 12.134.182.654.282 1.332.348 2.011.042.389-.041.786-.116 1.788-2.787-5.339-7.242-7.317-12.195-8.716-2.091-.587-3.045-.356-3.592 1.97-1.012 4.345-2.854 8.401-5.542 11.993-6.031 8.078-14.186 11.439-24.157 10.52-4.547-.414-7.317-3.377-9.483-7.035-1.908-3.228-3.525-6.638-5.624-9.734-2.912-4.287-5.558-4.85-10.279-2.648-4.646 2.16-8.022 5.901-11.83 9.733zm121.877 152.232c-7.707 9.825-17.828 16.471-29.135 21.33-19.653 8.442-40.335 11.885-61.647 11.645-5.003-.058-10.005-.795-14.75-2.591-9.905-3.741-16.434-10.536-16.998-21.329-.515-9.932 4.836-17.05 13.306-21.801 8.329-4.668 17.455-5.628 26.812-5.156 1.909.099 3.808.364 5.758.562-13.166 7.458-16.078 15.437-9.889 27.877-1.161-6.887-.124-12.829 4.729-17.638 4.554-4.511 10.328-6.547 16.467-7.648 9.092-1.63 16.443 1.374 21.652 8.956 4.713 6.861 3.46 15.444-2.754 20.973-.904.811-1.858 1.573-2.97 2.5 11.639.215 34.221-3.584 49.419-17.68z" fill="#E0E6EE"/><path d="M371.166 128.261c1.9-.712 3.791-1.424 5.691-2.144 2.812 1.722 3.899 4.718 5.226 7.432 2.414 4.95 3.999 10.181 3.933 15.296-.506-8.475.331-17.596-3.062-26.221l4.903-3.327c1.709 6.431 4.007 12.696 5.119 19.293 3.318 19.806 5.135 39.588-.315 59.336-.141.522-.482.985-.722 1.482-3.26 7.341-6.645 14.592-11.117 21.321-8.105 12.208-17.72 23.034-28.994 32.395-1.078.894-2.132 2.135-3.857 1.763-2.124-2.88-1.734-4.966.962-7.722 10.328-10.537 17.894-22.927 23.104-36.724.357-.944.489-1.962.73-2.947-.871-1.225-.398-2.375.216-3.501 1.335-2.458 2.48-5.007 3.575-7.581-6.977 15.8-18.068 28.273-31.599 38.76-.871.67-1.75 1.506-3.044 1.216-1.494-2.714-.78-4.751 1.476-6.861 4.488-4.196 8.321-8.947 10.478-15.006-3.136 2.425-6.197 4.941-9.433 7.226-1.402.993-3.044 2.921-4.695 1.994-1.419-.802-.589-3.145-.68-4.8-.598-10.437.746-20.477 7.051-29.209 5.276-7.308 12.444-11.951 21.354-13.59 3.501-.646 5.475-2.583 6.446-5.761 1.476-4.85 1.734-9.849 1.335-14.857-.754-9.179-2.007-18.283-4.081-27.263z" fill="#8FA0BD"/><path d="M180.455 112.497c5.674 6.538 10.502 12.672 12.302 20.543 1.377 6.033-1.783 10.71-7.931 12.258-10.112 2.549-19.37.678-27.874-5.289-7.508-5.264-13.929-11.786-20.814-17.762-7.666-6.655-15.953-8.194-25.369-4.776-2.821 1.026-5.691 1.573-8.702.778-4.372-1.15-6.496-4.254-7.65-9.154-.754 5.074-.373 9.22 2.614 12.581 1.61 1.812.738 2.193-.73 3.037-13.863 7.996-26.68 4.569-39.049-3.542-2.937-1.929-5.5-4.321-8.072-7.499 11.05 2.26 19.562-2.64 28.256-7.54 12.734-7.176 26.008-13.02 40.882-14.344 15.613-1.39 27.8 4.56 37.124 16.786 3.659 4.8 6.994 9.841 10.561 14.707 2.165 2.947 4.496 5.786 7.989 7.292 4.671 2.011 7.558.257 7.914-4.809.249-3.559-.273-7.043-1.07-10.503-.141-.629-.182-1.291-.381-2.764z" fill="#E0E6EE"/><path d="M306.03 321.124c-19.852 1.291-39.381-1.506-58.776-5.082-16.675-3.079-33.333-5.082-50.282-2.971-11.075 1.382-21.976 3.774-32.943 5.81-2.24.414-4.496.728-6.736 1.084-3.609 1.126-4.04-1.754-4.969-3.567.497 4.089.497 4.089-4.795 4.759-5.924-.066-11.872.133-17.696-1.274-1.775-.431-3.5-1.027-4.878-2.318-1.534-1.432-1.899-3.137-.862-4.933 3.89-6.745 8.81-12.158 17.23-12.936 3.261-.298 6.289 1.282 9.292 1.373 2.712.075 4.762-3.476 7.989-3.807 6.628-.678 12.601 1.324 18.284 4.387 1.659.894 2.713 1.167 4.397-.257 5.226-4.395 11.307-4.146 17.479-2.433a36.8 36.8 0 019.64 4.262c1.286.803 2.207 1.002 3.658.116 8.371-5.115 16.617-4.527 24.672.853.813.546 1.427 1.63 2.796.356 7.798-7.259 17.571-5.33 25.469.794 1.858 1.44 2.663 1.383 4.239-.273 3.302-3.443 7.441-2.682 11.506-1.622.44.116.904.232 1.269.48 3.593 2.367 7.052 2.707 11.217.836 4.463-2.011 8.627.19 12.369 2.872 1.593-4.519 3.675-5.934 8.453-5.355 3.302.397 6.596.447 9.906.48 3.559.372 4.745 1.895 4.869 6.241-2.148 5.247-6.529 7.821-11.581 9.551-1.601.546-3.244.96-4.861 1.432-1.518.654-2.248-.538-3.269-1.573-1.02.969-1.244 2.881-3.086 2.715zm-156.295-60.731c9.267-2.384 17.679.397 25.925 4.238.913.43 1.842.827 2.763 1.241 1.534.447 1.36 1.805 1.559 3.005 1.203.364 2.165-1.151 3.393-.439 17.928 9.742 36.975 14.592 57.458 13.011 9.117-.703 18.002-2.731 26.671-5.578 2.323-.762 4.098-1.143 5.55 2.499.033-3.518 1.112-5.016 3.7-5.736 4.372-1.216 8.586-2.971 12.933-4.304 5.957-1.829 13.879 3.601 14.219 9.734.141 2.541-1.003 4.759-3.102 6.149-6.438 4.288-13.63 6.076-21.337 6.034-2.456-.016-4.571-2.955-6.164-2.268-1.85.795-3.443 2.872-5.608 3.576-6.546 2.135-13.29 3.162-20.192 2.963-.896-.025-2.025-.033-2.63-.546-3.161-2.624-6.347-1.01-9.69-.563-9.316 1.258-18.508-.017-27.136-3.526-2.804-1.142-5.019-1.978-8.138-1.589-5.691.703-11.39-.281-16.832-2.119-3.593-1.217-6.637-3.112-5.99-7.821-10.834 6.886-26.19 2.963-30.869-7.69-.788-4.088-1.22-8.061 3.517-10.271z" fill="#F5F8FA"/><path d="M120.393 265.244c.398-17.844 7.682-34.042 24.091-40.854 6.173-2.566 12.569-3.012 19.106-2.292 1.817.198 3.061.827 3.791 2.996 2.381 7.143 9.167 11.687 17.446 11.91 10.262.273 20.483.803 30.612 2.715 3.095.579 4.289 1.713 3.584 4.85-.448 1.986-.556 4.056-.722 6.092-.547 6.985-4.629 9.89-11.423 7.747-6.587-2.078-12.917-4.917-19.653-6.613-18.077-4.536-35.814-4.801-52.928 3.774-4.886 2.466-9.217 5.785-13.904 9.675z" fill="#E0E6EE"/><path d="M114.987 322.51c6.388 1.622 12.278 3.219 18.284 4.345 10.943 2.061 21.752 1.44 32.645-.439 20.69-3.575 41.446-6.663 62.559-5.876 17.082.637 33.574 4.527 49.933 9.104 7.143 1.995 14.369 3.402 21.86 3.402 11.324 0 20.2-4.701 27.26-13.268.705-.852 1.386-1.73 2.572-3.219.199 4.477-1.186 7.705-3.094 10.71-4.77 7.507-12.229 10.909-20.45 13.118-12.344 3.311-24.166.58-35.904-3.07-13.373-4.155-26.771-8.112-40.916-8.848-11.033-.58-21.826.877-32.628 2.715-14.028 2.383-27.94 5.529-42.126 6.944-14.949 1.498-28.43-1.316-38.543-13.574-.423-.513-.771-1.084-1.452-2.044z" fill="#F5F8FA"/><path d="M114.888 350.31c8.661 5.495 17.803 9.973 27.542 13.176 9.341 3.079 18.956 4.85 28.762 5.62.987.075 2.48-.596 2.555 1.316.349 9.138 4.911 15.867 12.676 21.205-29.16-6.141-59-23.647-71.535-41.317zm195.897-2.879c-10.652 11.016-22.806 19.451-37.871 23.101-.556.132-1.112.223-1.668.347-4.372.993-4.471.861-3.426-3.36 1.593-6.448.398-12.39-3.484-17.77-1.054-1.465-2.24-2.831-3.991-5.024 8.744 3.426 16.949 5.413 25.452 5.893 8.479.48 16.8-.389 24.988-3.187zm-28.428-172.183c3.268 3.336 6.172 5.728 8.495 8.848-1.419.232-2.191-.77-3.103-1.291-7.972-4.602-16.368-7.962-25.643-8.732-.78-.066-1.559.008-2.032-.911-1.352-2.615-3.144-5.024-3.816-7.962-.946-4.097.473-5.951 4.645-5.504 12.701 1.366 23.876 6.456 33.839 14.294 4.903 3.857 9.3 8.211 12.793 13.466-7.765-4.726-15.721-8.963-25.178-12.208z" fill="#8FA0BD"/><path d="M326.409 163.704c-9.075-.961-17.894-2.864-25.435-8.468-2.928-2.176-4.77-5.073-5.483-8.74-.473-2.458-.415-3.385 2.712-2.922 9.375 1.391 18.815 1.879 28.19-.306 3.758-.877 7.234-2.334 10.428-4.502-6.147 10.776-15.331 16.346-28.082 16.04 5.558 3.965 11.863 5.835 17.67 8.898zm-219.121-25.476c12.917 8.996 19.827 9.874 41.645 4.932.423 4.776-1.601 8.418-5.11 11.307-6.272 5.164-13.904 7.027-21.627 8.607-1.66.34-3.352.514-5.111.547 6.015-3.203 12.56-5.256 18.45-9.204-13.256 1.084-22.714-4.196-28.247-16.189z" fill="#F4F7F9"/><path d="M347.975 254.891c18.898-14.194 32.777-32.345 42.566-53.732.307-.679.083-1.846 1.402-1.747-4.919 16.463-14.285 30.417-24.887 43.652-5.053 6.299-10.619 12.134-16.576 18.027-1.41-1.962-1.866-4.122-2.505-6.2z" fill="#DFE5ED"/><path d="M63.786 152.091c-3.07 10.181-2.754 20.651-2.588 31.096.008.381.406.753.622 1.134 1.012 5.728 2.265 11.381 4.662 16.728.349.769.921 1.63.141 2.507-5.176-6.737-7.54-14.6-9.217-22.752-2.09-10.181-1.16-24.467 2.398-34.399 1.892 1.656 3.186 3.477 3.982 5.686z" fill="#E0E6EE"/><path d="M341.891 236.387c15.256-11 27.119-24.83 35.15-42.187 0 2.773-.639 4.776-2.895 9.196-.664 1.307-1.452 2.557-1.394 4.105-2.688 4.296-5.276 8.657-8.08 12.87-5.716 8.608-12.776 15.966-21.171 22.397-.872-2.234-1.61-4.204-1.61-6.381z" fill="#DFE5ED"/><path d="M247.124 89.203c-4.255 1.514-8.329 3.343-11.456 7.846.448-4.95 2.099-8.351 5.226-10.884 1.535-1.233 1.925-2.972 2.713-4.544.241 1.763 1.186 1.184 2.157.662 3.045-1.63 6.355-2.508 9.69-3.22 1.244-.264 2.945-.869 3.774.53.888 1.49-.663 2.4-1.493 3.443-1.601 2.011-3.999 2.467-6.164 3.46-1.551.712-3.758.546-4.447 2.707z" fill="#637298"/><path d="M149.735 260.387c-3.028 2.789-3.883 6.323-3.534 10.271-.39-4.213-2.837-3.575-5.716-2.574-10.204 3.534-16.501 10.901-20.591 20.667.672-12.812 14.618-25.997 29.841-28.364z" fill="#8E9FBC"/><path d="M328.828 308.995c-.83-2.698-1.916-5.197-4.87-6.24 5.824-5.38 6.529-11.778 3.269-19.409 6.072 6.911 6.562 17.811 1.601 25.649z" fill="#8E9EBC"/><path d="M66.63 203.553c-1.393-5.082-3.757-9.874-4.43-15.188-.174-1.349-.273-2.69-.373-4.039.93 3.303 1.908 6.597 2.788 9.916 1.194 4.511 3.583 8.517 5.3 12.804-.895.621-1.717.381-1.642-.654.108-1.457-1.203-1.854-1.642-2.839z" fill="#434E71"/><path d="M147.524 321.155c3.228-.373 5.675-1.374 3.924-5.893 2.556 1.498 2.738 4.966 5.841 4.709.191.96 1.252 2.268-1.128 1.929-2.854-.406-5.758-.513-8.637-.745z" fill="#4F5F86"/><path d="M306.025 321.119c1.892-.852 1.66-2.98 2.514-4.42 2.074.282 1.361 3.601 3.841 3.27-1.949 1.324-3.667 3.939-6.355 1.15z" fill="#51628A"/><path d="M183.373 268.432c-1.369.646-2.737 1.292-4.164 1.962-.465-1.589.647-3.286-.788-4.527 2.928-1.614 4.007.347 4.952 2.565z" fill="#52638A"/><path d="M333.652 189.094l1.178 1.225v3.161c-1.352-1.456-1.443-2.88-1.178-4.386z" fill="#747C9E"/><path d="M382.957 122.628c1.933.199 1.725 1.937 2.024 3.104 2.132 8.252 2.016 16.636 1.087 25.12-.988-9.039-4.323-17.175-9.209-24.731 2.033-1.159 4.065-2.326 6.098-3.493z" fill="#00030B"/></g></svg>